<?xml version="1.0" encoding="utf-8"?>
<!-- Generator: Adobe Illustrator 16.0.0, SVG Export Plug-In . SVG Version: 6.00 Build 0)  -->
<!DOCTYPE svg PUBLIC "-//W3C//DTD SVG 1.1//EN" "http://www.w3.org/Graphics/SVG/1.1/DTD/svg11.dtd">
<svg version="1.1" id="right_banner" xmlns="http://www.w3.org/2000/svg" xmlns:xlink="http://www.w3.org/1999/xlink" x="0px"
	 y="0px" width="1920px" height="394.917px" viewBox="0 0 1920 394.917" enable-background="new 0 0 1920 394.917"
	 xml:space="preserve">
<g>
	<defs>
		<rect id="SVGID_1_" width="1920" height="394.917"/>
	</defs>
	<clipPath id="SVGID_2_">
		<use xlink:href="#SVGID_1_"  overflow="visible"/>
	</clipPath>
	<linearGradient id="SVGID_3_" gradientUnits="userSpaceOnUse" x1="960" y1="394.917" x2="960" y2="4.882813e-004">
		<stop  offset="0.0161" style="stop-color:#D2D1D1"/>
		<stop  offset="0.4946" style="stop-color:#EECC88"/>
		<stop  offset="0.5401" style="stop-color:#DFC387"/>
		<stop  offset="0.6228" style="stop-color:#BEB084"/>
		<stop  offset="0.7335" style="stop-color:#909580"/>
		<stop  offset="0.8668" style="stop-color:#657C7A"/>
		<stop  offset="1" style="stop-color:#426873"/>
	</linearGradient>
	<rect clip-path="url(#SVGID_2_)" fill="url(#SVGID_3_)" width="1920" height="394.917"/>
	<g clip-path="url(#SVGID_2_)">
		<polygon fill="#4C75A8" points="1296.142,330.818 1310.032,323.571 1320.904,312.097 1340.834,344.105 1352.309,334.442 
			1382.506,377.323 1405.457,360.11 1449.546,415.976 1473.1,419.6 1454.982,428.457 1430.421,430.873 1403.847,444.564 
			1370.83,423.626 1346.873,434.699 1317.883,427.451 1292.216,382.004 		"/>
		<polygon fill="#FFFFFF" points="1131.262,343.199 1148.776,311.794 1150.286,352.863 		"/>
		<polygon fill="#4C75A8" points="1140.522,435.505 1120.994,425.438 1164.277,399.268 1175.954,413.158 		"/>
		<polygon fill="#A7C5EB" points="1171.425,337.16 1161.459,331.423 1145.354,379.136 1173.94,389.402 		"/>
		<polygon fill="#4C75A8" points="1201.32,358.298 1181.39,352.863 1172.632,410.238 1195.885,411.446 		"/>
		<polygon fill="#A7C5EB" points="1270.021,319.193 1296.142,330.818 1281.244,339.677 		"/>
		<polygon fill="#A7C5EB" points="1260.709,431.88 1288.29,460.669 1295.537,439.833 		"/>
		<polygon fill="#FFFFFF" points="1224.327,304.6 1210.983,351.555 1224.422,344.407 		"/>
		<polygon fill="#A7C5EB" points="1173.136,418.392 1160.006,425.281 1164.881,412.353 1188.84,405.709 		"/>
		<polygon fill="#A7C5EB" points="1207.964,362.426 1210.983,351.555 1225.276,343.904 1221.653,361.62 		"/>
		<polygon fill="#FFFFFF" points="1253.863,310.284 1260.055,299.262 1258.494,310.687 		"/>
		<polygon fill="#D3E5F7" points="1177.968,436.109 1173.136,418.392 1189.645,393.429 		"/>
		<polygon fill="#A7C5EB" points="1203.736,426.847 1189.645,393.429 1201.32,358.298 		"/>
		<polygon fill="#C0DCF6" points="1177.968,436.109 1203.736,426.847 1189.645,393.429 		"/>
		<polygon fill="#C0DCF6" points="1173.136,418.392 1140.522,435.505 1177.968,436.109 		"/>
		<polygon fill="#C0DCF6" points="1201.32,358.298 1223.465,348.735 1202.68,397.027 		"/>
		<polygon fill="#C0DCF6" points="1239.168,372.491 1223.465,348.735 1224.327,304.6 		"/>
		<polygon fill="#86A3D2" points="1239.168,372.491 1202.68,397.027 1223.465,348.735 		"/>
		<path fill="#C0DCF6" d="M1243.597,280.69l14.897,29.996l-18.219,38.049C1240.275,348.735,1243.37,283.56,1243.597,280.69z"/>
		<polygon fill="#C0DCF6" points="1258.494,310.687 1260.055,299.262 1281.244,339.677 		"/>
		<polygon fill="#86A3D2" points="1239.168,372.491 1281.244,339.677 1258.494,310.687 1241.583,349.138 		"/>
		<polygon fill="#4C75A8" points="1239.168,372.491 1203.736,426.847 1202.68,397.027 		"/>
		<polygon fill="#5982BE" points="1281.244,339.677 1277.822,375.914 1239.168,372.491 		"/>
		<polygon fill="#5982BE" points="1277.822,375.914 1292.216,382.004 1289.195,398.009 		"/>
		<polygon fill="#5982BE" points="1239.168,372.491 1242.087,392.725 1228.8,412.806 1203.736,426.847 		"/>
		<polygon fill="#86A3D2" points="1242.087,392.725 1289.195,398.009 1277.822,375.914 		"/>
		<polygon fill="#4C75A8" points="1239.168,372.491 1277.822,375.914 1242.087,392.725 		"/>
		<polygon fill="#4C75A8" points="1281.244,339.677 1292.216,382.004 1277.822,375.914 		"/>
		<polygon fill="#A7C5EB" points="1258.494,310.687 1239.168,372.491 1241.332,328.101 		"/>
		<polygon fill="#FFFFFF" points="1224.327,304.6 1243.597,280.69 1239.168,372.491 		"/>
		<polygon fill="#D3E5F7" points="1210.983,351.555 1201.32,358.298 1210.279,354.473 		"/>
		<polygon fill="#86A3D2" points="1140.522,435.505 1164.881,412.353 1160.006,425.281 		"/>
		<polygon fill="#5982BE" points="1289.195,398.009 1295.537,439.833 1242.087,392.725 		"/>
		<polygon fill="#4C75A8" points="1203.736,426.847 1228.8,412.806 1268.661,424.884 		"/>
		<polygon fill="#5982BE" points="1234.519,425.913 1295.537,439.833 1268.661,424.884 		"/>
		<polygon fill="#86A3D2" points="1228.8,412.806 1242.087,392.725 1295.537,439.833 		"/>
		<polygon fill="#C0DCF6" points="1288.29,460.669 1243.999,451.912 1260.709,431.88 		"/>
		<polygon fill="#4C75A8" points="1295.537,439.833 1317.883,427.451 1289.195,398.009 		"/>
		<polygon fill="#86A3D2" points="1292.216,382.004 1317.883,427.451 1289.195,398.009 		"/>
		<polygon fill="#86A3D2" points="1281.244,339.677 1296.142,330.818 1292.216,382.004 		"/>
		<polygon fill="#C0DCF6" points="1296.142,330.818 1305.804,406.011 1292.216,382.004 		"/>
		<polygon fill="#86A3D2" points="1181.39,352.863 1171.425,337.16 1172.632,410.238 		"/>
		<polygon fill="#C0DCF6" points="1145.354,379.136 1172.632,410.238 1172.279,388.848 		"/>
		<polygon fill="#86A3D2" points="1120.994,425.438 1145.354,379.136 1163.459,399.764 		"/>
		<polygon fill="#C0DCF6" points="1161.459,331.423 1148.776,311.794 1145.354,379.136 		"/>
		<polygon fill="#D3E5F7" points="1145.354,379.136 1131.262,343.199 1146.763,351.151 		"/>
		<polygon fill="#A7C5EB" points="1131.262,343.199 1116.465,350.447 1108.713,344.71 1093.816,357.091 1087.777,382.155 
			1066.336,386.986 1044.292,409.644 1071.168,416.882 1083.55,431.98 1102.271,423.224 1120.994,425.438 1145.354,379.136 		"/>
		<polygon fill="#86A3D2" points="1071.168,416.882 1066.336,386.986 1083.55,431.98 		"/>
		<polygon fill="#4C75A8" points="1102.271,423.224 1131.262,405.96 1120.994,425.438 		"/>
		<polygon fill="#86A3D2" points="1145.354,379.136 1116.465,350.447 1131.262,343.199 		"/>
		<polygon fill="#4C75A8" points="1131.262,405.96 1145.354,379.136 1116.465,350.447 		"/>
		<polygon fill="#FFFFFF" points="1093.816,357.091 1116.465,350.447 1119.182,335.047 		"/>
		<polygon fill="#D3E5F7" points="1087.777,382.155 1116.465,350.447 1093.816,357.091 		"/>
		<polygon fill="#C0DCF6" points="1117.521,379.739 1087.777,382.155 1116.465,350.447 		"/>
		<polygon fill="#86A3D2" points="1131.262,405.96 1117.521,379.739 1116.465,350.447 		"/>
		<polygon fill="#5982BE" points="1102.271,423.224 1131.262,405.96 1117.521,379.739 		"/>
		<polygon fill="#A7C5EB" points="1087.777,382.155 1102.271,423.224 1117.521,379.739 		"/>
		<polygon fill="#5982BE" points="1131.262,343.199 1119.182,335.047 1116.465,350.447 		"/>
		<polygon fill="#4C75A8" points="1095.024,402.765 1083.55,431.98 1102.271,423.224 		"/>
		<polygon fill="#D3E5F7" points="1066.336,386.986 1087.777,382.155 1074.037,407.168 		"/>
		<polygon fill="#C0DCF6" points="1095.024,402.765 1087.777,382.155 1074.037,407.168 		"/>
		<polygon fill="#FFFFFF" points="1310.032,323.571 1320.904,312.097 1317.883,332.178 		"/>
		<polygon fill="#D3E5F7" points="1296.142,330.818 1310.032,323.571 1317.883,332.178 1296.946,337.462 		"/>
		<polygon fill="#FFFFFF" points="1382.506,377.323 1405.457,360.11 1405.257,374.908 		"/>
		<polygon fill="#FFFFFF" points="1345.867,350.346 1352.309,334.442 1356.336,371.082 		"/>
		<polygon fill="#86A3D2" points="1449.546,415.976 1454.982,428.457 1473.1,419.6 		"/>
		<polygon fill="#A7C5EB" points="1430.421,430.873 1449.546,415.976 1454.982,428.457 		"/>
		<polygon fill="#5982BE" points="1405.457,360.11 1405.257,374.908 1449.546,415.976 		"/>
		<polygon fill="#4C75A8" points="1430.421,430.873 1405.257,374.908 1449.546,415.976 		"/>
		<polygon fill="#A7C5EB" points="1403.847,444.564 1430.421,430.873 1421.612,411.296 		"/>
		<polygon fill="#86A3D2" points="1370.83,423.626 1382.506,377.323 1356.336,371.082 		"/>
		<polygon fill="#86A3D2" points="1345.867,350.346 1352.309,334.442 1339.021,345.111 		"/>
		<polygon fill="#5982BE" points="1345.867,350.346 1317.883,332.178 1320.904,312.097 		"/>
		<polygon fill="#86A3D2" points="1317.883,427.451 1370.83,423.626 1346.873,434.699 		"/>
		<polygon fill="#5982BE" points="1201.32,358.298 1172.632,410.238 1181.39,352.863 		"/>
		<polygon fill="#86A3D2" points="1203.736,426.847 1243.999,451.912 1260.709,431.88 1234.519,425.913 		"/>
		<polygon fill="#86A3D2" points="1095.024,402.765 1117.521,379.739 1102.271,423.224 		"/>
		<polygon fill="#86A3D2" points="1405.257,374.908 1403.847,444.564 1421.612,411.296 		"/>
		<polygon fill="#4C75A8" points="1370.83,423.626 1345.867,350.346 1356.336,371.082 		"/>
		<polygon fill="#A7C5EB" points="1317.883,332.178 1370.83,423.626 1345.867,350.346 		"/>
		<polygon fill="#A7C5EB" points="1300.57,367.458 1317.883,332.178 1296.142,330.818 		"/>
		<polygon fill="#D3E5F7" points="1376.77,399.367 1405.257,374.908 1382.506,377.323 		"/>
		<polygon fill="#C0DCF6" points="1403.847,444.564 1376.77,399.367 1405.257,374.908 		"/>
		<polygon fill="#A7C5EB" points="1370.83,423.626 1376.77,399.367 1403.847,444.564 		"/>
		<polygon fill="#86A3D2" points="1312.822,363.121 1340.23,370.679 1317.883,332.178 		"/>
		<polygon fill="#A7C5EB" points="1305.804,406.011 1340.23,370.679 1312.822,363.121 		"/>
		<polygon fill="#86A3D2" points="1370.83,423.626 1305.804,406.011 1340.23,370.679 		"/>
		<polygon fill="#86A3D2" points="1312.822,363.121 1305.804,406.011 1300.57,367.458 1317.883,332.178 		"/>
		<polygon fill="#C0DCF6" points="1382.506,377.323 1356.336,371.082 1352.309,334.442 		"/>
		<linearGradient id="SVGID_4_" gradientUnits="userSpaceOnUse" x1="1100.1758" y1="327.8076" x2="1133.6956" y2="439.8423">
			<stop  offset="0.2527" style="stop-color:#FFFFFF"/>
			<stop  offset="1" style="stop-color:#B2A395"/>
		</linearGradient>
		<polygon fill="url(#SVGID_4_)" points="1083.55,431.98 1095.024,402.765 1117.521,379.739 1116.465,350.447 1119.182,335.047 
			1131.262,343.199 1145.354,379.136 1172.632,410.238 1164.881,412.353 1140.522,435.505 1120.994,425.438 1102.271,423.224 		"/>
		<linearGradient id="SVGID_5_" gradientUnits="userSpaceOnUse" x1="1221.3525" y1="295.3052" x2="1270.8772" y2="460.7897">
			<stop  offset="0.2527" style="stop-color:#FFFFFF"/>
			<stop  offset="1" style="stop-color:#B2A395"/>
		</linearGradient>
		<polygon fill="url(#SVGID_5_)" points="1243.999,451.912 1203.736,426.847 1202.68,397.027 1239.168,372.491 1258.494,310.687 
			1281.244,339.677 1292.216,382.004 1317.883,427.451 1295.537,439.833 1260.709,431.88 		"/>
		<linearGradient id="SVGID_6_" gradientUnits="userSpaceOnUse" x1="1293.3955" y1="308.0137" x2="1343.7249" y2="415.5172">
			<stop  offset="0.2527" style="stop-color:#FFFFFF"/>
			<stop  offset="1" style="stop-color:#B2A395"/>
		</linearGradient>
		<polygon fill="url(#SVGID_6_)" points="1317.914,427.457 1305.835,406.016 1312.822,363.121 1317.914,332.183 1320.934,312.101 
			1345.896,350.352 1356.366,371.088 1370.86,423.632 		"/>
		<linearGradient id="SVGID_7_" gradientUnits="userSpaceOnUse" x1="1375.8564" y1="349.0264" x2="1437.4596" y2="447.4706">
			<stop  offset="0.2527" style="stop-color:#FFFFFF"/>
			<stop  offset="1" style="stop-color:#B2A395"/>
		</linearGradient>
		<polygon fill="url(#SVGID_7_)" points="1403.847,444.564 1405.257,374.908 1405.457,360.11 1449.546,415.976 1430.421,430.873 		
			"/>
		
			<radialGradient id="SVGID_8_" cx="267.3467" cy="-6144.8691" r="5.635" gradientTransform="matrix(-0.3256 5.9317 -0.146 -0.008 337 -1288.9821)" gradientUnits="userSpaceOnUse">
			<stop  offset="0" style="stop-color:#FFFFFF"/>
			<stop  offset="1" style="stop-color:#0D0F0F"/>
		</radialGradient>
		<path fill="url(#SVGID_8_)" d="M1145.268,379.427c-0.454-0.025-0.002-15.011,1.013-33.474c1.013-18.461,2.203-33.408,2.656-33.383
			c0.455,0.025,0.002,15.01-1.011,33.472C1146.913,364.505,1145.723,379.451,1145.268,379.427z"/>
		
			<radialGradient id="SVGID_9_" cx="258.7383" cy="-3380.8945" r="5.634" gradientTransform="matrix(-0.13 6.0134 -0.3063 -0.0066 402.8636 -1168.8406)" gradientUnits="userSpaceOnUse">
			<stop  offset="0" style="stop-color:#FFFFFF"/>
			<stop  offset="1" style="stop-color:#0D0F0F"/>
		</radialGradient>
		<path fill="url(#SVGID_9_)" d="M1404.063,443.254c-0.953-0.021-1.397-15.21-0.993-33.926c0.404-18.715,1.507-33.872,2.459-33.853
			c0.953,0.021,1.4,15.209,0.992,33.925C1406.119,428.117,1405.018,443.273,1404.063,443.254z"/>
		
			<radialGradient id="SVGID_10_" cx="238.8496" cy="-2948.4961" r="5.6343" gradientTransform="matrix(-1.0044 6.3166 -0.3026 -0.0481 659.4077 -1280.5002)" gradientUnits="userSpaceOnUse">
			<stop  offset="0" style="stop-color:#FFFFFF"/>
			<stop  offset="1" style="stop-color:#0D0F0F"/>
		</radialGradient>
		<path fill="url(#SVGID_10_)" d="M1306.06,405.636c-0.94-0.148,0.831-16.209,3.958-35.867c3.125-19.658,6.423-35.477,7.363-35.327
			c0.942,0.15-0.827,16.209-3.955,35.867C1310.302,389.97,1307.004,405.786,1306.06,405.636z"/>
		
			<radialGradient id="SVGID_11_" cx="425.9287" cy="-1959.0146" r="3.6118" gradientTransform="matrix(3.7354 2.4374 -0.1675 0.2566 -586.9199 -193.9386)" gradientUnits="userSpaceOnUse">
			<stop  offset="0" style="stop-color:#FFFFFF"/>
			<stop  offset="1" style="stop-color:#0D0F0F"/>
		</radialGradient>
		<path fill="url(#SVGID_11_)" d="M1345.725,350.346c-0.334,0.512-6.648-3.017-14.102-7.881c-7.455-4.862-13.226-9.222-12.893-9.732
			c0.334-0.513,6.648,3.015,14.103,7.88C1340.287,345.476,1346.058,349.833,1345.725,350.346z"/>
		
			<radialGradient id="SVGID_12_" cx="96.5029" cy="-1315.8867" r="5.6362" gradientTransform="matrix(-2.5367 2.807 -0.2273 -0.2054 1047.7837 -174.8448)" gradientUnits="userSpaceOnUse">
			<stop  offset="0" style="stop-color:#FFFFFF"/>
			<stop  offset="1" style="stop-color:#0D0F0F"/>
		</radialGradient>
		<path fill="url(#SVGID_12_)" d="M1087.79,382.142c-0.708-0.639,5.119-8.24,13.015-16.977c7.896-8.735,14.87-15.3,15.576-14.661
			c0.707,0.639-5.117,8.241-13.014,16.976C1095.471,376.217,1088.497,382.781,1087.79,382.142z"/>
		<linearGradient id="SVGID_13_" gradientUnits="userSpaceOnUse" x1="1250.0146" y1="278.4834" x2="1165.7672" y2="454.2254">
			<stop  offset="0" style="stop-color:#FFFFFF"/>
			<stop  offset="1" style="stop-color:#0D0F0F"/>
		</linearGradient>
		<polygon opacity="0.69" fill="url(#SVGID_13_)" points="1140.522,435.505 1164.881,412.353 1179.88,408.125 1189.645,393.429 
			1201.32,358.298 1210.983,351.555 1224.327,304.6 1243.597,280.69 1258.494,310.687 1239.168,372.491 1203.334,396.649 
			1203.736,426.847 1177.968,436.109 		"/>
		<linearGradient id="SVGID_14_" gradientUnits="userSpaceOnUse" x1="1140.3926" y1="296.3755" x2="1169.08" y2="411.1254">
			<stop  offset="0" style="stop-color:#FFFFFF"/>
			<stop  offset="0.7363" style="stop-color:#0D0F0F"/>
		</linearGradient>
		<polygon opacity="0.69" fill="url(#SVGID_14_)" points="1172.632,410.238 1145.354,379.136 1131.262,343.199 1148.776,311.794 
			1161.459,331.423 1171.425,337.16 		"/>
		<linearGradient id="SVGID_15_" gradientUnits="userSpaceOnUse" x1="1116.7412" y1="333.6152" x2="1068.7272" y2="415.4505">
			<stop  offset="0" style="stop-color:#FFFFFF"/>
			<stop  offset="0.7363" style="stop-color:#0D0F0F"/>
		</linearGradient>
		<polygon opacity="0.69" fill="url(#SVGID_15_)" points="1083.55,431.98 1071.168,416.882 1044.292,409.644 1066.336,386.986 
			1087.79,382.142 1093.816,357.091 1119.182,335.047 1116.465,350.447 1117.521,379.739 1095.024,402.765 		"/>
		<linearGradient id="SVGID_16_" gradientUnits="userSpaceOnUse" x1="1310.9043" y1="309.6064" x2="1294.8832" y2="404.6227">
			<stop  offset="0" style="stop-color:#FFFFFF"/>
			<stop  offset="1" style="stop-color:#0D0F0F"/>
		</linearGradient>
		<polygon opacity="0.69" fill="url(#SVGID_16_)" points="1305.835,406.016 1292.216,382.004 1296.142,330.818 1310.032,323.571 
			1320.934,312.101 1317.914,332.183 		"/>
		<linearGradient id="SVGID_17_" gradientUnits="userSpaceOnUse" x1="1388.6104" y1="349.0674" x2="1387.6041" y2="444.3927">
			<stop  offset="0.2527" style="stop-color:#FFFFFF"/>
			<stop  offset="1" style="stop-color:#0D0F0F"/>
		</linearGradient>
		<polygon opacity="0.43" fill="url(#SVGID_17_)" points="1403.847,444.564 1370.86,423.632 1382.506,377.323 1405.457,360.11 		"/>
	</g>
	<g clip-path="url(#SVGID_2_)">
		<linearGradient id="SVGID_18_" gradientUnits="userSpaceOnUse" x1="1326.0977" y1="255.2446" x2="1433.0928" y2="255.2446">
			<stop  offset="0.0061" style="stop-color:#C79485"/>
			<stop  offset="1" style="stop-color:#DCAA87"/>
		</linearGradient>
		<polygon fill="url(#SVGID_18_)" points="1331.601,250.638 1326.098,260.991 1433.093,249.498 		"/>
		<linearGradient id="SVGID_19_" gradientUnits="userSpaceOnUse" x1="1326.0977" y1="255.2446" x2="1443.5752" y2="255.2446">
			<stop  offset="0.0061" style="stop-color:#B85D4C"/>
			<stop  offset="1" style="stop-color:#CE7E66"/>
		</linearGradient>
		<polygon fill="url(#SVGID_19_)" points="1326.098,260.991 1443.575,257.896 1433.093,249.498 		"/>
		<linearGradient id="SVGID_20_" gradientUnits="userSpaceOnUse" x1="1297.1797" y1="255.687" x2="1330.4355" y2="255.687">
			<stop  offset="0.0061" style="stop-color:#C79485"/>
			<stop  offset="1" style="stop-color:#DCAA87"/>
		</linearGradient>
		<polygon fill="url(#SVGID_20_)" points="1297.18,256.57 1330.436,250.383 1326.098,260.991 		"/>
		<linearGradient id="SVGID_21_" gradientUnits="userSpaceOnUse" x1="1279.1055" y1="264.7471" x2="1326.0977" y2="264.7471">
			<stop  offset="0.0061" style="stop-color:#C79485"/>
			<stop  offset="1" style="stop-color:#DCAA87"/>
		</linearGradient>
		<polygon fill="url(#SVGID_21_)" points="1279.105,272.924 1297.18,256.57 1326.098,260.991 		"/>
		<linearGradient id="SVGID_22_" gradientUnits="userSpaceOnUse" x1="1326.0977" y1="264.5264" x2="1443.5752" y2="264.5264">
			<stop  offset="0.0061" style="stop-color:#6F4037"/>
			<stop  offset="1" style="stop-color:#CC765C"/>
		</linearGradient>
		<polygon fill="url(#SVGID_22_)" points="1358.629,271.156 1443.575,257.896 1326.098,260.991 		"/>
		<linearGradient id="SVGID_23_" gradientUnits="userSpaceOnUse" x1="1358.6289" y1="325.3008" x2="1443.5752" y2="325.3008">
			<stop  offset="0.0061" style="stop-color:#6F4037"/>
			<stop  offset="1" style="stop-color:#CC765C"/>
		</linearGradient>
		<polygon fill="url(#SVGID_23_)" points="1395.499,392.706 1358.629,271.156 1443.575,257.896 		"/>
		<linearGradient id="SVGID_24_" gradientUnits="userSpaceOnUse" x1="1395.499" y1="325.3008" x2="1453.334" y2="325.3008">
			<stop  offset="0.0061" style="stop-color:#260F00"/>
			<stop  offset="1" style="stop-color:#774F41"/>
		</linearGradient>
		<polygon fill="url(#SVGID_24_)" points="1443.575,257.896 1453.334,369.723 1395.499,392.706 		"/>
		<linearGradient id="SVGID_25_" gradientUnits="userSpaceOnUse" x1="1395.499" y1="381.2148" x2="1475.0234" y2="381.2148">
			<stop  offset="0.0061" style="stop-color:#200E00"/>
			<stop  offset="1" style="stop-color:#684639"/>
		</linearGradient>
		<polygon fill="url(#SVGID_25_)" points="1475.023,385.192 1395.499,392.706 1453.334,369.723 		"/>
		<linearGradient id="SVGID_26_" gradientUnits="userSpaceOnUse" x1="1279.1055" y1="266.9575" x2="1358.6289" y2="266.9575">
			<stop  offset="0.0061" style="stop-color:#C79485"/>
			<stop  offset="1" style="stop-color:#DCAA87"/>
		</linearGradient>
		<polygon fill="url(#SVGID_26_)" points="1326.098,260.991 1279.105,272.924 1358.629,271.156 		"/>
		<linearGradient id="SVGID_27_" gradientUnits="userSpaceOnUse" x1="1358.6289" y1="332.373" x2="1395.499" y2="332.373">
			<stop  offset="0.0061" style="stop-color:#6F4037"/>
			<stop  offset="1" style="stop-color:#CC765C"/>
		</linearGradient>
		<polygon fill="url(#SVGID_27_)" points="1395.499,392.706 1368.751,393.591 1358.629,271.156 		"/>
		<linearGradient id="SVGID_28_" gradientUnits="userSpaceOnUse" x1="1395.499" y1="389.834" x2="1521.29" y2="389.834">
			<stop  offset="0.0061" style="stop-color:#050710"/>
			<stop  offset="1" style="stop-color:#3C281E"/>
		</linearGradient>
		<polygon fill="url(#SVGID_28_)" points="1521.29,394.475 1395.499,392.706 1475.023,385.192 		"/>
		<linearGradient id="SVGID_29_" gradientUnits="userSpaceOnUse" x1="1448.2734" y1="344.75" x2="1517.6768" y2="344.75">
			<stop  offset="0.0061" style="stop-color:#B85D4C"/>
			<stop  offset="1" style="stop-color:#CE7E66"/>
		</linearGradient>
		<polygon fill="url(#SVGID_29_)" points="1448.273,341.877 1485.145,340.992 1517.677,348.507 		"/>
		<linearGradient id="SVGID_30_" gradientUnits="userSpaceOnUse" x1="1448.2734" y1="349.832" x2="1517.6768" y2="349.832">
			<stop  offset="0.0061" style="stop-color:#B75B49"/>
			<stop  offset="1" style="stop-color:#CD7A61"/>
		</linearGradient>
		<polygon fill="url(#SVGID_30_)" points="1451.166,357.788 1517.677,348.507 1448.273,341.877 		"/>
		<linearGradient id="SVGID_31_" gradientUnits="userSpaceOnUse" x1="1231.3926" y1="365.082" x2="1321.7598" y2="365.082">
			<stop  offset="0.0061" style="stop-color:#260F00"/>
			<stop  offset="1" style="stop-color:#774F41"/>
		</linearGradient>
		<polygon fill="url(#SVGID_31_)" points="1231.393,394.475 1321.76,382.982 1284.004,335.689 		"/>
		<linearGradient id="SVGID_32_" gradientUnits="userSpaceOnUse" x1="1451.166" y1="359.7773" x2="1519.8457" y2="359.7773">
			<stop  offset="0.0061" style="stop-color:#6F4037"/>
			<stop  offset="1" style="stop-color:#CC765C"/>
		</linearGradient>
		<polygon fill="url(#SVGID_32_)" points="1519.846,348.507 1509.725,371.049 1451.166,357.788 		"/>
		<linearGradient id="SVGID_33_" gradientUnits="userSpaceOnUse" x1="1451.166" y1="371.4902" x2="1475.0234" y2="371.4902">
			<stop  offset="0.0061" style="stop-color:#6F4037"/>
			<stop  offset="1" style="stop-color:#CC765C"/>
		</linearGradient>
		<polygon fill="url(#SVGID_33_)" points="1475.023,385.192 1451.166,357.788 1453.334,369.723 		"/>
		<linearGradient id="SVGID_34_" gradientUnits="userSpaceOnUse" x1="1451.166" y1="371.4902" x2="1509.7246" y2="371.4902">
			<stop  offset="0.0061" style="stop-color:#260F00"/>
			<stop  offset="1" style="stop-color:#774F41"/>
		</linearGradient>
		<polygon fill="url(#SVGID_34_)" points="1509.725,371.049 1475.023,385.192 1451.166,357.788 		"/>
		<linearGradient id="SVGID_35_" gradientUnits="userSpaceOnUse" x1="1475.0234" y1="382.7617" x2="1521.29" y2="382.7617">
			<stop  offset="0.0061" style="stop-color:#6F4037"/>
			<stop  offset="1" style="stop-color:#CC765C"/>
		</linearGradient>
		<polygon fill="url(#SVGID_35_)" points="1521.29,394.475 1509.725,371.049 1475.023,385.192 		"/>
		<linearGradient id="SVGID_36_" gradientUnits="userSpaceOnUse" x1="1509.7246" y1="359.7773" x2="1537.1963" y2="359.7773">
			<stop  offset="0.0061" style="stop-color:#6F4037"/>
			<stop  offset="1" style="stop-color:#CC765C"/>
		</linearGradient>
		<polygon fill="url(#SVGID_36_)" points="1537.196,370.165 1519.846,348.507 1509.725,371.049 		"/>
		<linearGradient id="SVGID_37_" gradientUnits="userSpaceOnUse" x1="1521.29" y1="387.8457" x2="1587.0781" y2="387.8457">
			<stop  offset="0.0061" style="stop-color:#6F4037"/>
			<stop  offset="1" style="stop-color:#CC765C"/>
		</linearGradient>
		<polygon fill="url(#SVGID_37_)" points="1527.799,380.773 1587.078,394.917 1521.29,394.475 		"/>
		<linearGradient id="SVGID_38_" gradientUnits="userSpaceOnUse" x1="1527.7988" y1="382.541" x2="1587.0781" y2="382.541">
			<stop  offset="0.0061" style="stop-color:#6F4037"/>
			<stop  offset="1" style="stop-color:#CC765C"/>
		</linearGradient>
		<polygon fill="url(#SVGID_38_)" points="1537.196,370.165 1527.799,380.773 1587.078,394.917 		"/>
		<linearGradient id="SVGID_39_" gradientUnits="userSpaceOnUse" x1="1509.7246" y1="382.7617" x2="1527.7988" y2="382.7617">
			<stop  offset="0.0061" style="stop-color:#260F00"/>
			<stop  offset="1" style="stop-color:#774F41"/>
		</linearGradient>
		<polygon fill="url(#SVGID_39_)" points="1509.725,371.049 1527.799,380.773 1521.29,394.475 		"/>
		<linearGradient id="SVGID_40_" gradientUnits="userSpaceOnUse" x1="1509.7246" y1="375.4688" x2="1537.1963" y2="375.4688">
			<stop  offset="0.0061" style="stop-color:#050710"/>
			<stop  offset="1" style="stop-color:#3C281E"/>
		</linearGradient>
		<polygon fill="url(#SVGID_40_)" points="1537.196,370.165 1527.799,380.773 1509.725,371.049 		"/>
		<linearGradient id="SVGID_41_" gradientUnits="userSpaceOnUse" x1="1321.7598" y1="332.373" x2="1368.751" y2="332.373">
			<stop  offset="0.0061" style="stop-color:#200E00"/>
			<stop  offset="1" style="stop-color:#684639"/>
		</linearGradient>
		<polygon fill="url(#SVGID_41_)" points="1358.629,271.156 1321.76,382.982 1368.751,393.591 		"/>
		<linearGradient id="SVGID_42_" gradientUnits="userSpaceOnUse" x1="1327.3496" y1="326.2461" x2="1309.9845" y2="263.4644">
			<stop  offset="0.0061" style="stop-color:#6F4037"/>
			<stop  offset="1" style="stop-color:#CC765C"/>
		</linearGradient>
		<polygon fill="url(#SVGID_42_)" points="1279.105,272.924 1283.444,335.689 1358.629,271.156 		"/>
		<linearGradient id="SVGID_43_" gradientUnits="userSpaceOnUse" x1="1330.1445" y1="340.5537" x2="1322.7211" y2="310.2892">
			<stop  offset="0.0061" style="stop-color:#260F00"/>
			<stop  offset="1" style="stop-color:#774F41"/>
		</linearGradient>
		<polygon fill="url(#SVGID_43_)" points="1334.049,350.275 1283.444,335.689 1358.629,271.156 		"/>
		<linearGradient id="SVGID_44_" gradientUnits="userSpaceOnUse" x1="1283.4443" y1="359.3359" x2="1334.0488" y2="359.3359">
			<stop  offset="0.0061" style="stop-color:#180C0A"/>
			<stop  offset="1" style="stop-color:#3C281E"/>
		</linearGradient>
		<polygon fill="url(#SVGID_44_)" points="1321.76,382.982 1283.444,335.689 1334.049,350.275 		"/>
		<linearGradient id="SVGID_45_" gradientUnits="userSpaceOnUse" x1="1231.3926" y1="362.54" x2="1283.4443" y2="362.54">
			<stop  offset="0.0061" style="stop-color:#260F00"/>
			<stop  offset="1" style="stop-color:#774F41"/>
		</linearGradient>
		<polygon fill="url(#SVGID_45_)" points="1283.444,335.689 1270.792,330.605 1231.393,394.475 		"/>
		<linearGradient id="SVGID_46_" gradientUnits="userSpaceOnUse" x1="1270.792" y1="304.3066" x2="1283.4443" y2="304.3066">
			<stop  offset="0.0061" style="stop-color:#260F00"/>
			<stop  offset="1" style="stop-color:#774F41"/>
		</linearGradient>
		<polygon fill="url(#SVGID_46_)" points="1279.105,272.924 1270.792,330.605 1283.444,335.689 		"/>
		<linearGradient id="SVGID_47_" gradientUnits="userSpaceOnUse" x1="1231.3926" y1="388.7285" x2="1368.751" y2="388.7285">
			<stop  offset="0.0061" style="stop-color:#050710"/>
			<stop  offset="1" style="stop-color:#3C281E"/>
		</linearGradient>
		<polygon fill="url(#SVGID_47_)" points="1368.751,393.591 1231.393,394.475 1321.76,382.982 		"/>
		<linearGradient id="SVGID_48_" gradientUnits="userSpaceOnUse" x1="1213.5596" y1="383.793" x2="1243.9229" y2="383.793">
			<stop  offset="0.0061" style="stop-color:#260F00"/>
			<stop  offset="1" style="stop-color:#774F41"/>
		</linearGradient>
		<polygon fill="url(#SVGID_48_)" points="1243.923,373.112 1213.56,377.826 1231.393,394.475 		"/>
		<linearGradient id="SVGID_49_" gradientUnits="userSpaceOnUse" x1="1201.5098" y1="386.1504" x2="1231.3926" y2="386.1504">
			<stop  offset="0.0061" style="stop-color:#6F4037"/>
			<stop  offset="1" style="stop-color:#CC765C"/>
		</linearGradient>
		<polygon fill="url(#SVGID_49_)" points="1201.51,391.97 1213.56,377.826 1231.393,394.475 		"/>
		<linearGradient id="SVGID_50_" gradientUnits="userSpaceOnUse" x1="1228.9824" y1="365.7441" x2="1254.5254" y2="365.7441">
			<stop  offset="0.0061" style="stop-color:#6F4037"/>
			<stop  offset="1" style="stop-color:#CC765C"/>
		</linearGradient>
		<polygon fill="url(#SVGID_50_)" points="1228.982,375.469 1254.525,356.021 1243.923,373.112 		"/>
	</g>
	<g clip-path="url(#SVGID_2_)">
		<g opacity="0.53">
			<linearGradient id="SVGID_51_" gradientUnits="userSpaceOnUse" x1="443.3906" y1="333.0811" x2="434.4062" y2="375.2376">
				<stop  offset="0.0121" style="stop-color:#B08F6D"/>
				<stop  offset="0.9818" style="stop-color:#292719"/>
			</linearGradient>
			<path fill="url(#SVGID_51_)" d="M382.566,362.421c0.023,3.527,0.045,7.055,0.068,10.582l107.726-4.256L382.566,362.421z"/>
			<linearGradient id="SVGID_52_" gradientUnits="userSpaceOnUse" x1="419.0879" y1="328.6309" x2="419.5091" y2="343.7951">
				<stop  offset="0.0121" style="stop-color:#B08F6D"/>
				<stop  offset="0.9818" style="stop-color:#292719"/>
			</linearGradient>
			<path fill="url(#SVGID_52_)" d="M382.494,351.278l74.318-4.568l-25.348-16.258l-49.025,12.047
				C382.455,345.425,382.477,348.353,382.494,351.278z"/>
			<linearGradient id="SVGID_53_" gradientUnits="userSpaceOnUse" x1="280.6821" y1="385.9063" x2="437.2443" y2="385.9063">
				<stop  offset="0" style="stop-color:#2C2310"/>
				<stop  offset="0.9818" style="stop-color:#080E00"/>
			</linearGradient>
			<polygon fill="url(#SVGID_53_)" points="382.696,382.298 382.744,389.515 437.244,385.56 			"/>
			<linearGradient id="SVGID_54_" gradientUnits="userSpaceOnUse" x1="289.0713" y1="377.1533" x2="490.3608" y2="377.1533">
				<stop  offset="0" style="stop-color:#2C2310"/>
				<stop  offset="0.9818" style="stop-color:#080E00"/>
			</linearGradient>
			<path fill="url(#SVGID_54_)" d="M382.635,373.003l0.016,2.354c0.014,2.314,0.029,4.627,0.046,6.941l54.548,3.262l53.116-16.813
				L382.635,373.003z"/>
			<linearGradient id="SVGID_55_" gradientUnits="userSpaceOnUse" x1="431.4648" y1="338.5811" x2="607.7793" y2="338.5811">
				<stop  offset="0.0121" style="stop-color:#D4A474"/>
				<stop  offset="0.9818" style="stop-color:#4C4A3D"/>
			</linearGradient>
			<polygon fill="url(#SVGID_55_)" points="607.779,340.804 431.465,330.452 456.813,346.71 			"/>
			<linearGradient id="SVGID_56_" gradientUnits="userSpaceOnUse" x1="289.0737" y1="356.0244" x2="514.1236" y2="356.0244">
				<stop  offset="0" style="stop-color:#5D5244"/>
				<stop  offset="0.9818" style="stop-color:#080E00"/>
			</linearGradient>
			<path fill="url(#SVGID_56_)" d="M382.494,351.274c0.024,3.717,0.051,7.432,0.072,11.146l107.794,6.326l23.763-25.445
				L382.494,351.274z"/>
			<linearGradient id="SVGID_57_" gradientUnits="userSpaceOnUse" x1="595.3398" y1="353.625" x2="595.111" y2="377.6579">
				<stop  offset="0" style="stop-color:#2C2310"/>
				<stop  offset="0.9818" style="stop-color:#080E00"/>
			</linearGradient>
			<polygon fill="url(#SVGID_57_)" points="514.123,343.302 700.037,368.067 490.36,368.747 			"/>
			<linearGradient id="SVGID_58_" gradientUnits="userSpaceOnUse" x1="280.686" y1="391.2393" x2="595.2039" y2="391.2393">
				<stop  offset="0" style="stop-color:#2C2310"/>
				<stop  offset="0.9818" style="stop-color:#080E00"/>
			</linearGradient>
			<path fill="url(#SVGID_58_)" d="M382.789,396.919h212.414L437.244,385.56l-54.5,3.955
				C382.76,391.983,382.772,394.45,382.789,396.919z"/>
			<linearGradient id="SVGID_59_" gradientUnits="userSpaceOnUse" x1="437.2441" y1="382.833" x2="595.2031" y2="382.833">
				<stop  offset="0" style="stop-color:#5D5244"/>
				<stop  offset="0.9818" style="stop-color:#080E00"/>
			</linearGradient>
			<polygon fill="url(#SVGID_59_)" points="490.36,368.747 595.203,396.919 437.244,385.56 			"/>
			<linearGradient id="SVGID_60_" gradientUnits="userSpaceOnUse" x1="599.1797" y1="334.25" x2="633.9638" y2="400.408">
				<stop  offset="0.0121" style="stop-color:#D4A474"/>
				<stop  offset="0.9818" style="stop-color:#4C4A3D"/>
			</linearGradient>
			<polygon fill="url(#SVGID_60_)" points="607.779,340.804 700.037,368.067 521.327,344.188 			"/>
			<linearGradient id="SVGID_61_" gradientUnits="userSpaceOnUse" x1="490.3604" y1="382.833" x2="855.1992" y2="382.833">
				<stop  offset="0" style="stop-color:#2C2310"/>
				<stop  offset="0.9818" style="stop-color:#080E00"/>
			</linearGradient>
			<polygon fill="url(#SVGID_61_)" points="855.199,396.919 595.203,396.919 490.36,368.747 			"/>
			<linearGradient id="SVGID_62_" gradientUnits="userSpaceOnUse" x1="490.3604" y1="382.4932" x2="855.1992" y2="382.4932">
				<stop  offset="0" style="stop-color:#2C2310"/>
				<stop  offset="0.9818" style="stop-color:#080E00"/>
			</linearGradient>
			<polygon fill="url(#SVGID_62_)" points="700.037,368.067 855.199,396.919 490.36,368.747 			"/>
			<linearGradient id="SVGID_63_" gradientUnits="userSpaceOnUse" x1="700.0371" y1="382.4932" x2="996.3789" y2="382.4932">
				<stop  offset="0" style="stop-color:#2C2310"/>
				<stop  offset="0.9818" style="stop-color:#0B1B1D"/>
			</linearGradient>
			<polygon fill="url(#SVGID_63_)" points="996.379,396.692 855.199,396.919 700.037,368.067 			"/>
		</g>
		<g>
			<linearGradient id="SVGID_64_" gradientUnits="userSpaceOnUse" x1="534.9609" y1="294.9307" x2="486.6454" y2="316.2592">
				<stop  offset="0" style="stop-color:#F3F2DC"/>
				<stop  offset="1" style="stop-color:#91C9C9"/>
			</linearGradient>
			<polygon fill="url(#SVGID_64_)" points="493.871,253.683 573.154,337.456 499.799,311.308 			"/>
			<linearGradient id="SVGID_65_" gradientUnits="userSpaceOnUse" x1="382.0703" y1="342.5225" x2="345.5354" y2="421.2463">
				<stop  offset="0.0121" style="stop-color:#54695F"/>
				<stop  offset="0.0899" style="stop-color:#4D5C53"/>
				<stop  offset="0.2651" style="stop-color:#3F453C"/>
				<stop  offset="0.4424" style="stop-color:#34352B"/>
				<stop  offset="0.6204" style="stop-color:#2D2B20"/>
				<stop  offset="0.7996" style="stop-color:#292418"/>
				<stop  offset="0.9818" style="stop-color:#282216"/>
			</linearGradient>
			<polygon fill="url(#SVGID_65_)" points="324.221,396.444 385.794,334.007 415.006,342.282 			"/>
			<polygon fill="none" points="418.342,319.185 415.006,342.282 385.794,334.007 			"/>
			<linearGradient id="SVGID_66_" gradientUnits="userSpaceOnUse" x1="422.7725" y1="287.8457" x2="389.3995" y2="348.1323">
				<stop  offset="0" style="stop-color:#F3F2DC"/>
				<stop  offset="1" style="stop-color:#91C9C9"/>
			</linearGradient>
			<polygon fill="url(#SVGID_66_)" points="417.506,274.024 385.794,334.007 418.342,319.185 			"/>
			<linearGradient id="SVGID_67_" gradientUnits="userSpaceOnUse" x1="436.0674" y1="341.6094" x2="464.2885" y2="305.7732">
				<stop  offset="0" style="stop-color:#6B6D68"/>
				<stop  offset="1" style="stop-color:#76BB99"/>
			</linearGradient>
			<polygon fill="url(#SVGID_67_)" points="455.063,312.979 415.006,342.282 451.725,347.798 			"/>
			<polygon fill="none" points="418.342,319.185 437.119,325.39 415.006,342.282 			"/>
			<linearGradient id="SVGID_68_" gradientUnits="userSpaceOnUse" x1="417.5059" y1="296.6045" x2="437.1191" y2="296.6045">
				<stop  offset="0" style="stop-color:#F3F2DC"/>
				<stop  offset="1" style="stop-color:#91C9C9"/>
			</linearGradient>
			<polygon fill="url(#SVGID_68_)" points="417.506,274.024 437.119,299.534 418.342,319.185 			"/>
			<linearGradient id="SVGID_69_" gradientUnits="userSpaceOnUse" x1="429.3779" y1="332.1855" x2="426.8678" y2="297.4024">
				<stop  offset="0" style="stop-color:#6B6D68"/>
				<stop  offset="1" style="stop-color:#587771"/>
			</linearGradient>
			<polygon fill="url(#SVGID_69_)" points="436.986,326.438 437.119,299.534 418.342,319.185 			"/>
			<linearGradient id="SVGID_70_" gradientUnits="userSpaceOnUse" x1="436.9863" y1="312.9863" x2="455.0625" y2="312.9863">
				<stop  offset="0" style="stop-color:#696B67"/>
				<stop  offset="1" style="stop-color:#57756F"/>
			</linearGradient>
			<polygon fill="url(#SVGID_70_)" points="455.063,312.979 437.119,299.534 436.986,326.438 			"/>
			<linearGradient id="SVGID_71_" gradientUnits="userSpaceOnUse" x1="382.9912" y1="344.7607" x2="382.2875" y2="366.5747">
				<stop  offset="0.0121" style="stop-color:#54695F"/>
				<stop  offset="0.0899" style="stop-color:#4D5C53"/>
				<stop  offset="0.2651" style="stop-color:#3F453C"/>
				<stop  offset="0.4424" style="stop-color:#34352B"/>
				<stop  offset="0.6204" style="stop-color:#2D2B20"/>
				<stop  offset="0.7996" style="stop-color:#292418"/>
				<stop  offset="0.9818" style="stop-color:#282216"/>
			</linearGradient>
			<polygon fill="url(#SVGID_71_)" points="324.036,396.062 439.625,365.38 415.006,342.282 			"/>
			<linearGradient id="SVGID_72_" gradientUnits="userSpaceOnUse" x1="473.2754" y1="327.4277" x2="467.9765" y2="352.2913">
				<stop  offset="0.0121" style="stop-color:#AF846D"/>
				<stop  offset="0.9818" style="stop-color:#282216"/>
			</linearGradient>
			<polygon fill="url(#SVGID_72_)" points="439.625,335.388 439.625,365.38 499.711,353.313 			"/>
			<linearGradient id="SVGID_73_" gradientUnits="userSpaceOnUse" x1="471.0703" y1="310.7305" x2="471.4215" y2="323.3748">
				<stop  offset="0.0121" style="stop-color:#AF846D"/>
				<stop  offset="0.9818" style="stop-color:#282216"/>
			</linearGradient>
			<polygon fill="url(#SVGID_73_)" points="489.697,319.874 455.063,312.979 453.268,331.255 			"/>
			<linearGradient id="SVGID_74_" gradientUnits="userSpaceOnUse" x1="324.0361" y1="380.7207" x2="439.625" y2="380.7207">
				<stop  offset="0.0121" style="stop-color:#AF846D"/>
				<stop  offset="0.9818" style="stop-color:#282216"/>
			</linearGradient>
			<polygon fill="url(#SVGID_74_)" points="324.036,396.062 437.119,396.062 439.625,365.38 			"/>
			<linearGradient id="SVGID_75_" gradientUnits="userSpaceOnUse" x1="437.1191" y1="380.7207" x2="483.8555" y2="380.7207">
				<stop  offset="0" style="stop-color:#292016"/>
				<stop  offset="0.9818" style="stop-color:#050D09"/>
			</linearGradient>
			<polygon fill="url(#SVGID_75_)" points="483.855,378.825 439.625,365.38 437.119,396.062 			"/>
			<linearGradient id="SVGID_76_" gradientUnits="userSpaceOnUse" x1="439.625" y1="366.0693" x2="499.7109" y2="366.0693">
				<stop  offset="0" style="stop-color:#292016"/>
				<stop  offset="0.9818" style="stop-color:#050D09"/>
			</linearGradient>
			<polygon fill="url(#SVGID_76_)" points="499.711,353.313 483.855,378.825 439.625,365.38 			"/>
			<linearGradient id="SVGID_77_" gradientUnits="userSpaceOnUse" x1="455.0625" y1="315.3926" x2="534.7637" y2="315.3926">
				<stop  offset="0.0121" style="stop-color:#D3987B"/>
				<stop  offset="0.9818" style="stop-color:#3F3628"/>
			</linearGradient>
			<polygon fill="url(#SVGID_77_)" points="534.764,310.911 455.063,312.979 489.697,319.874 			"/>
			<linearGradient id="SVGID_78_" gradientUnits="userSpaceOnUse" x1="439.625" y1="334.0078" x2="506.8066" y2="334.0078">
				<stop  offset="0" style="stop-color:#5B493E"/>
				<stop  offset="0.9818" style="stop-color:#050D09"/>
			</linearGradient>
			<polygon fill="url(#SVGID_78_)" points="506.807,314.702 439.625,335.388 499.711,353.313 			"/>
			<linearGradient id="SVGID_79_" gradientUnits="userSpaceOnUse" x1="531.2324" y1="329.3223" x2="530.8875" y2="365.5321">
				<stop  offset="0" style="stop-color:#292016"/>
				<stop  offset="0.9818" style="stop-color:#050D09"/>
			</linearGradient>
			<polygon fill="url(#SVGID_79_)" points="506.807,314.702 562.305,352.28 499.711,353.313 			"/>
			<linearGradient id="SVGID_80_" gradientUnits="userSpaceOnUse" x1="437.1191" y1="387.4434" x2="531.0098" y2="387.4434">
				<stop  offset="0" style="stop-color:#292016"/>
				<stop  offset="0.9818" style="stop-color:#050D09"/>
			</linearGradient>
			<polygon fill="url(#SVGID_80_)" points="437.119,396.062 531.01,396.062 483.855,378.825 			"/>
			<linearGradient id="SVGID_81_" gradientUnits="userSpaceOnUse" x1="483.8555" y1="374.6875" x2="531.0098" y2="374.6875">
				<stop  offset="0" style="stop-color:#5B493E"/>
				<stop  offset="0.9818" style="stop-color:#050D09"/>
			</linearGradient>
			<polygon fill="url(#SVGID_81_)" points="499.711,353.313 531.01,396.062 483.855,378.825 			"/>
			<linearGradient id="SVGID_82_" gradientUnits="userSpaceOnUse" x1="529.3564" y1="322.2285" x2="548.3318" y2="358.3189">
				<stop  offset="0.0121" style="stop-color:#D3987B"/>
				<stop  offset="0.9818" style="stop-color:#3F3628"/>
			</linearGradient>
			<polygon fill="url(#SVGID_82_)" points="534.764,310.911 562.305,352.28 508.957,316.046 			"/>
			<linearGradient id="SVGID_83_" gradientUnits="userSpaceOnUse" x1="483.3721" y1="275.9272" x2="450.9987" y2="328.1055">
				<stop  offset="0" style="stop-color:#F3F2DC"/>
				<stop  offset="1" style="stop-color:#91C9C9"/>
			</linearGradient>
			<polygon fill="url(#SVGID_83_)" points="433.379,294.647 493.871,253.683 499.799,311.308 			"/>
			<linearGradient id="SVGID_84_" gradientUnits="userSpaceOnUse" x1="499.7109" y1="374.6875" x2="608.624" y2="374.6875">
				<stop  offset="0" style="stop-color:#292016"/>
				<stop  offset="0.9818" style="stop-color:#050D09"/>
			</linearGradient>
			<polygon fill="url(#SVGID_84_)" points="608.624,396.062 531.01,396.062 499.711,353.313 			"/>
			<linearGradient id="SVGID_85_" gradientUnits="userSpaceOnUse" x1="499.7109" y1="374.1709" x2="608.624" y2="374.1709">
				<stop  offset="0" style="stop-color:#292016"/>
				<stop  offset="0.9818" style="stop-color:#050D09"/>
			</linearGradient>
			<polygon fill="url(#SVGID_85_)" points="562.305,352.28 608.624,396.062 499.711,353.313 			"/>
			<linearGradient id="SVGID_86_" gradientUnits="userSpaceOnUse" x1="557.7285" y1="329.4443" x2="562.6876" y2="348.5722">
				<stop  offset="0" style="stop-color:#A5A79C"/>
				<stop  offset="1" style="stop-color:#7BB7A8"/>
			</linearGradient>
			<polygon fill="url(#SVGID_86_)" points="562.305,352.28 573.154,337.456 542.629,322.694 			"/>
			<linearGradient id="SVGID_87_" gradientUnits="userSpaceOnUse" x1="562.3047" y1="374.1709" x2="650.7686" y2="374.1709">
				<stop  offset="0" style="stop-color:#292016"/>
				<stop  offset="0.9818" style="stop-color:#002019"/>
			</linearGradient>
			<polygon fill="url(#SVGID_87_)" points="650.769,395.716 608.624,396.062 562.305,352.28 			"/>
			<linearGradient id="SVGID_88_" gradientUnits="userSpaceOnUse" x1="603.998" y1="363.6885" x2="597.1844" y2="336.0066">
				<stop  offset="0" style="stop-color:#6B6D68"/>
				<stop  offset="0.4299" style="stop-color:#64716C"/>
				<stop  offset="1" style="stop-color:#587771"/>
			</linearGradient>
			<polygon fill="url(#SVGID_88_)" points="573.154,337.456 562.305,352.28 650.769,395.716 			"/>
			<linearGradient id="SVGID_89_" gradientUnits="userSpaceOnUse" x1="400.9805" y1="334.1826" x2="403.7483" y2="315.269">
				<stop  offset="0" style="stop-color:#54695F"/>
				<stop  offset="1" style="stop-color:#91C9C9"/>
			</linearGradient>
			<polygon fill="url(#SVGID_89_)" points="385.794,334.007 418.342,319.185 415.006,342.282 			"/>
			<linearGradient id="SVGID_90_" gradientUnits="userSpaceOnUse" x1="426.5918" y1="336.9658" x2="422.9352" y2="320.0536">
				<stop  offset="0" style="stop-color:#54695F"/>
				<stop  offset="1" style="stop-color:#91C9C9"/>
			</linearGradient>
			<polygon fill="url(#SVGID_90_)" points="418.342,319.185 415.006,342.282 437.018,326.286 			"/>
			<linearGradient id="SVGID_91_" gradientUnits="userSpaceOnUse" x1="427.6299" y1="344.0703" x2="427.3531" y2="352.649">
				<stop  offset="0" style="stop-color:#292016"/>
				<stop  offset="0.9818" style="stop-color:#050D09"/>
			</linearGradient>
			<polygon fill="url(#SVGID_91_)" points="415.006,342.282 439.625,365.38 439.625,345.901 			"/>
			<linearGradient id="SVGID_92_" gradientUnits="userSpaceOnUse" x1="466.5889" y1="303.7676" x2="466.5889" y2="298.4687">
				<stop  offset="0" style="stop-color:#F6F5E3"/>
				<stop  offset="1" style="stop-color:#96CCCD"/>
			</linearGradient>
			<polygon fill="url(#SVGID_92_)" points="499.799,311.308 437.357,299.845 433.379,294.647 			"/>
			<linearGradient id="SVGID_93_" gradientUnits="userSpaceOnUse" x1="469.4434" y1="306.5459" x2="468.7695" y2="314.1819">
				<stop  offset="0.0121" style="stop-color:#A1CFBE"/>
				<stop  offset="0.0283" style="stop-color:#A1CBB9"/>
				<stop  offset="0.2157" style="stop-color:#A0AE91"/>
				<stop  offset="0.4052" style="stop-color:#9F9979"/>
				<stop  offset="0.5955" style="stop-color:#9E8B6A"/>
				<stop  offset="0.787" style="stop-color:#9D8362"/>
				<stop  offset="0.9818" style="stop-color:#9D8160"/>
			</linearGradient>
			<polygon fill="url(#SVGID_93_)" points="501.926,311.767 455.063,312.979 437.119,299.534 			"/>
			<linearGradient id="SVGID_94_" gradientUnits="userSpaceOnUse" x1="404.9229" y1="323.1445" x2="404.9229" y2="317.4887">
				<stop  offset="0" style="stop-color:#79A896"/>
				<stop  offset="0.3214" style="stop-color:#54695F"/>
				<stop  offset="1" style="stop-color:#91C9C9"/>
			</linearGradient>
			<polygon fill="url(#SVGID_94_)" points="391.504,323.536 394.711,317.626 418.342,319.185 			"/>
			<linearGradient id="SVGID_95_" gradientUnits="userSpaceOnUse" x1="504.4863" y1="307.5195" x2="504.4863" y2="264.6141">
				<stop  offset="0" style="stop-color:#8FC7B5"/>
				<stop  offset="0.3214" style="stop-color:#87B89D"/>
				<stop  offset="1" style="stop-color:#96CCCD"/>
			</linearGradient>
			<polygon fill="url(#SVGID_95_)" points="504.732,265.657 500.293,310.492 508.68,269.937 			"/>
			<linearGradient id="SVGID_96_" gradientUnits="userSpaceOnUse" x1="432.1963" y1="324.5127" x2="432.1963" y2="298.9125">
				<stop  offset="0" style="stop-color:#6B6D68"/>
				<stop  offset="1" style="stop-color:#76BB99"/>
			</linearGradient>
			<polygon fill="url(#SVGID_96_)" points="427.273,322.517 437.018,326.286 437.119,299.534 			"/>
		</g>
	</g>
	<circle clip-path="url(#SVGID_2_)" fill="#FFFFFF" cx="398.307" cy="56.656" r="4.25"/>
	<circle clip-path="url(#SVGID_2_)" fill="#FFFFFF" cx="753.557" cy="121.906" r="4.25"/>
	<circle clip-path="url(#SVGID_2_)" fill="#FFFFFF" cx="1188.308" cy="63.573" r="4.25"/>
	<circle clip-path="url(#SVGID_2_)" fill="#FFFFFF" cx="323.557" cy="135.906" r="3"/>
	<circle clip-path="url(#SVGID_2_)" fill="#FFFFFF" cx="1236.199" cy="56.656" r="3"/>
	<circle clip-path="url(#SVGID_2_)" fill="#FFFFFF" cx="1509.725" cy="126.156" r="3"/>
</g>
</svg>
