<?xml version="1.0" encoding="utf-8"?>
<!-- Generator: Adobe Illustrator 16.0.0, SVG Export Plug-In . SVG Version: 6.00 Build 0)  -->
<!DOCTYPE svg PUBLIC "-//W3C//DTD SVG 1.1//EN" "http://www.w3.org/Graphics/SVG/1.1/DTD/svg11.dtd">
<svg version="1.1" id="managers" xmlns="http://www.w3.org/2000/svg" xmlns:xlink="http://www.w3.org/1999/xlink" x="0px" y="0px"
	 width="347.455px" height="41.707px" viewBox="0 0 347.455 41.707" enable-background="new 0 0 347.455 41.707"
	 xml:space="preserve">
<rect fill="#AD380B" width="31.317" height="31.79"/>
<path fill="#033B3F" d="M76.73,27.291L76.73,27.291L76.73,27.291L76.73,27.291L86.135,0h8.58L79.587,41.641h-5.839L57.774,0h9.473
	L76.73,27.291z"/>
<path fill="#FFFFFF" d="M15.927,19.69L15.927,19.69L15.927,19.69L15.927,19.69l5.191-11.587h4.736l-8.35,17.68h-3.223L5.463,8.104
	h5.229L15.927,19.69z"/>
<path fill="#033B3F" d="M97.752,0h24.727v7.269h-16.563v9.712h15.074v7.27h-15.074v10.188h16.861v7.269H97.752V0z"/>
<path fill="#033B3F" d="M128.853,0.417c0.914-0.158,1.896-0.308,2.95-0.447c1.052-0.139,2.104-0.247,3.158-0.327
	c1.052-0.079,2.075-0.139,3.068-0.179c0.992-0.039,1.907-0.06,2.741-0.06c1.946,0,3.863,0.179,5.75,0.536
	c1.886,0.357,3.575,0.974,5.064,1.847c1.49,0.874,2.681,2.076,3.575,3.604c0.894,1.53,1.34,3.447,1.34,5.75
	c0,3.417-0.795,6.196-2.383,8.342c-1.589,2.145-3.714,3.634-6.375,4.469l1.525-0.582l10.928,18.337h-9.414l-9.474-16.325
	l-4.29-0.774v17.1h-8.163V0.417z M141.365,6.673c-0.834,0-1.659,0.021-2.473,0.06c-0.814,0.04-1.44,0.119-1.876,0.238v12.096h3.456
	c2.264,0,4.071-0.517,5.422-1.55c1.35-1.032,2.026-2.74,2.026-5.124c0-1.787-0.557-3.188-1.668-4.2
	C145.139,7.18,143.51,6.673,141.365,6.673z"/>
<path fill="#033B3F" d="M192.784,9.712c0,1.033-0.129,2.065-0.387,3.098c-0.26,1.034-0.686,1.977-1.281,2.83
	c-0.596,0.855-1.371,1.609-2.324,2.265s-2.105,1.143-3.455,1.46v0.357c1.191,0.199,2.322,0.536,3.395,1.013
	c1.074,0.477,2.006,1.132,2.801,1.966s1.42,1.848,1.877,3.039s0.686,2.602,0.686,4.23c0,2.145-0.457,4.002-1.371,5.57
	c-0.914,1.57-2.135,2.851-3.664,3.844s-3.268,1.728-5.213,2.204c-1.947,0.477-3.953,0.715-6.019,0.715c-0.676,0-1.539,0-2.592,0
	s-2.184-0.029-3.396-0.089c-1.212-0.06-2.443-0.149-3.694-0.269c-1.251-0.119-2.394-0.298-3.426-0.536V0.298
	c0.754-0.119,1.618-0.238,2.592-0.357c0.973-0.119,2.016-0.218,3.128-0.298c1.111-0.079,2.254-0.139,3.425-0.179
	c1.171-0.039,2.333-0.06,3.485-0.06c1.946,0,3.844,0.148,5.69,0.446c1.848,0.298,3.494,0.825,4.945,1.579
	c1.449,0.755,2.611,1.809,3.486,3.158C192.347,5.938,192.784,7.646,192.784,9.712z M175.207,17.517c0.556,0,1.201-0.02,1.937-0.059
	c0.734-0.039,1.341-0.099,1.817-0.177c1.509-0.471,2.81-1.179,3.903-2.122c1.092-0.943,1.639-2.182,1.639-3.715
	c0-1.022-0.199-1.866-0.598-2.535c-0.396-0.668-0.922-1.199-1.578-1.592c-0.655-0.393-1.4-0.668-2.234-0.825
	s-1.708-0.236-2.622-0.236c-1.033,0-1.986,0.021-2.859,0.06c-0.874,0.039-1.549,0.098-2.026,0.176v11.025H175.207z M177.888,35.451
	c0.993,0,1.956-0.117,2.891-0.354c0.933-0.236,1.758-0.6,2.473-1.092c0.715-0.491,1.291-1.11,1.729-1.858
	c0.436-0.746,0.654-1.632,0.654-2.653c0-1.298-0.258-2.32-0.773-3.067c-0.518-0.746-1.193-1.326-2.027-1.739
	c-0.834-0.414-1.768-0.679-2.8-0.797c-1.033-0.117-2.065-0.177-3.099-0.177h-4.349v11.384c0.199,0.079,0.516,0.138,0.954,0.177
	c0.437,0.039,0.902,0.068,1.399,0.088c0.497,0.021,1.014,0.04,1.55,0.06S177.49,35.451,177.888,35.451z"/>
<path fill="#033B3F" d="M220.489,32.472h-12.811l-3.157,9.235h-8.163l15.015-42.005h6.018l15.015,42.005h-8.58L220.489,32.472z
	 M209.765,25.918h8.937l-4.7-12.836l0,0l0,0l0,0L209.765,25.918z"/>
<path fill="#AD380B" d="M262.374,41.707h-26.395V0h8.162v34.438h18.232V41.707z"/>
<path fill="#033B3F" d="M0,33.545h33.545V0h8.162v41.707H0V33.545z"/>
<path fill="#AD380B" d="M267.438,0h8.162v41.707h-8.162V0z"/>
<path fill="#AD380B" d="M291.329,16.143L291.329,16.143L291.329,16.143L291.329,16.143v25.564h-7.745V-0.298h5.958l18.908,26.35l0,0
	l0,0l-0.617-0.874V0h7.746v42.005h-5.958L291.329,16.143z"/>
<path fill="#AD380B" d="M322.729,0h24.726v7.269h-16.563v9.712h15.074v7.27h-15.074v10.188h16.862v7.269h-25.024V0z"/>
</svg>
