<?xml version="1.0" encoding="utf-8"?>
<!-- Generator: Adobe Illustrator 16.0.0, SVG Export Plug-In . SVG Version: 6.00 Build 0)  -->
<!DOCTYPE svg PUBLIC "-//W3C//DTD SVG 1.1//EN" "http://www.w3.org/Graphics/SVG/1.1/DTD/svg11.dtd">
<svg version="1.1" id="managers" xmlns="http://www.w3.org/2000/svg" xmlns:xlink="http://www.w3.org/1999/xlink" x="0px" y="0px"
	 width="343px" height="425px" viewBox="0 0 343 425" enable-background="new 0 0 343 425" xml:space="preserve">
<g>
	<path fill="#FFCB9E" d="M114.597,239.952c-1.461-2.567-2.304-5.629-1.824-8.235c0.277-1.503,1.09-3.829,2.841-4.166
		c1.933-0.374,3.684,1.784,5.476,2.134c2.153,0.419,4.586-0.056,6.769-0.011c2.374,0.047,2.902-1.746,4.338,0.259
		c1.119,1.561,1.951,3.508,1.891,5.454c-0.064,2.117-0.387,3.79,0.653,5.8c1.625,3.148,1.748,7.373-2.836,7.505
		c-3.896,0.112-6.871-3.807-10.592-4.695C118.592,243.346,116.055,242.507,114.597,239.952z"/>
	<path opacity="0.35" fill="#C78C7B" d="M127.43,235.207c0.62,1.026,1.722,2.248,2.738,2.819c-4.993-1.478-7.254,5.619-8.927,1.043
		c-0.671-1.832-1.528-3.329-2.403-5.064c-0.626-1.232-1.167-2.508-1.787-3.747c-0.476-0.948-1.316-2.109-1.316-3.212
		c0.001-1.606,1.481-1.846,2.797-1.49C123.129,226.791,125.212,231.521,127.43,235.207z"/>
	<g>
		
			<radialGradient id="SVGID_1_" cx="359.5996" cy="100.4961" r="15.0527" gradientTransform="matrix(-0.9799 -0.1994 -0.1994 0.9799 402.0997 40.7827)" gradientUnits="userSpaceOnUse">
			<stop  offset="0" style="stop-color:#FF1515"/>
			<stop  offset="0.0569" style="stop-color:#FF1C1C"/>
			<stop  offset="0.1381" style="stop-color:#FF2E2E"/>
			<stop  offset="0.2337" style="stop-color:#FF4D4D"/>
			<stop  offset="0.3405" style="stop-color:#FF7878"/>
			<stop  offset="0.4565" style="stop-color:#FFAFAF"/>
			<stop  offset="0.5784" style="stop-color:#FFF1F1"/>
			<stop  offset="0.6025" style="stop-color:#FFFFFF"/>
		</radialGradient>
		<path opacity="0.2" fill="url(#SVGID_1_)" d="M14.94,64.554c-1.658,8.146,3.604,16.092,11.75,17.752
			c8.145,1.657,16.093-3.603,17.751-11.749c1.658-8.144-3.603-16.093-11.746-17.75C24.548,51.148,16.598,56.407,14.94,64.554z"/>
		<g opacity="0.5">
			
				<linearGradient id="SVGID_2_" gradientUnits="userSpaceOnUse" x1="265.7432" y1="167.3496" x2="366.8447" y2="167.3496" gradientTransform="matrix(-0.9932 -0.1164 -0.1164 0.9932 407.1238 16.2202)">
				<stop  offset="0" style="stop-color:#FF1515"/>
				<stop  offset="0.1025" style="stop-color:#FF1B1B"/>
				<stop  offset="0.2333" style="stop-color:#FF2A2A"/>
				<stop  offset="0.3792" style="stop-color:#FF4545"/>
				<stop  offset="0.5364" style="stop-color:#FF6969"/>
				<stop  offset="0.7025" style="stop-color:#FF9898"/>
				<stop  offset="0.8734" style="stop-color:#FFD0D0"/>
				<stop  offset="1" style="stop-color:#FFFFFF"/>
			</linearGradient>
			<polygon fill="url(#SVGID_2_)" points="114.218,220.017 115.779,219.14 32.781,71.213 31.22,72.088 			"/>
		</g>
		<g>
			
				<linearGradient id="SVGID_3_" gradientUnits="userSpaceOnUse" x1="265.7432" y1="167.3496" x2="366.8447" y2="167.3496" gradientTransform="matrix(-0.9932 -0.1164 -0.1164 0.9932 407.1238 16.2202)">
				<stop  offset="0" style="stop-color:#FF1515"/>
				<stop  offset="0.0973" style="stop-color:#F91515"/>
				<stop  offset="0.2213" style="stop-color:#EA1313"/>
				<stop  offset="0.3599" style="stop-color:#CF1111"/>
				<stop  offset="0.5091" style="stop-color:#AB0E0E"/>
				<stop  offset="0.6668" style="stop-color:#7C0A0A"/>
				<stop  offset="0.8317" style="stop-color:#430505"/>
				<stop  offset="1" style="stop-color:#000000"/>
			</linearGradient>
			<polygon fill="url(#SVGID_3_)" points="114.218,220.017 115.779,219.14 32.781,71.213 31.22,72.088 			"/>
		</g>
		
			<linearGradient id="SVGID_4_" gradientUnits="userSpaceOnUse" x1="236.8945" y1="237.0303" x2="242.3869" y2="241.7902" gradientTransform="matrix(-0.9799 -0.1994 -0.1994 0.9799 402.0997 40.7827)">
			<stop  offset="0" style="stop-color:#D4C6C1"/>
			<stop  offset="0.3159" style="stop-color:#F3EEE7"/>
			<stop  offset="0.7421" style="stop-color:#948E88"/>
			<stop  offset="1" style="stop-color:#D4C6C1"/>
		</linearGradient>
		<path fill="url(#SVGID_4_)" d="M125.064,229.618c1.7,2.367,4.188,5.587,0.856,7.833c-1.09,0.735-3.576,0.979-5.464-1.354
			c-1.886-2.334-8.932-14.038-8.216-16.545c0.621-2.167,3.443-3.776,5.213-2.347C118.82,218.31,123.408,227.315,125.064,229.618z"/>
		<g opacity="0.5">
			
				<linearGradient id="SVGID_5_" gradientUnits="userSpaceOnUse" x1="255.5156" y1="244.2295" x2="266.3297" y2="232.7982" gradientTransform="matrix(-0.9799 -0.1994 -0.1994 0.9799 421.6974 44.7719)">
				<stop  offset="0" style="stop-color:#28282E"/>
				<stop  offset="1" style="stop-color:#CCCCDE"/>
			</linearGradient>
			<path fill="url(#SVGID_5_)" d="M114.523,222.755c-0.102,0.972,0.229,2.647,0.442,3.44l-1.57-2.452c0,0,0.911,1.671,2.081,3.805
				c0.708,1.657,1.941,4.275,1.941,4.275l1.432,1.827c0.737,1.316,1.326,2.351,1.572,2.741c0.957,1.521,3.832,2.252,5.711,0.904
				c1.289-0.92,1.672-1.964,1.503-3.054c-0.106-0.693-2.018-1.507-3.891-0.403c-0.225,0.134-0.427,0.258-0.615,0.38l-4.441-7.385
				c-0.093-0.428-0.253-0.785-0.52-0.981c-0.04-0.03-0.08-0.055-0.119-0.079l-4.769-7.928c0,0-1.057,1.114-0.906,1.396
				C112.422,219.329,113.307,220.775,114.523,222.755z M120.295,234.513c0.009-0.1,0.11-1.175,0.075-2.248
				c1.003,1.627,1.687,2.738,1.687,2.738c-0.528,0.443-0.576,1.36-0.576,1.36L120.295,234.513z M118.684,229.521
				c0.12,0.193,0.236,0.387,0.354,0.574c-0.402,0.143-0.532,0.543-0.565,0.678C118.504,230.627,118.604,230.139,118.684,229.521z"/>
		</g>
		
			<radialGradient id="SVGID_6_" cx="359.5986" cy="100.4971" r="7.8545" gradientTransform="matrix(-0.9799 -0.1994 -0.1994 0.9799 402.0997 40.7827)" gradientUnits="userSpaceOnUse">
			<stop  offset="0" style="stop-color:#FF1515"/>
			<stop  offset="0.0569" style="stop-color:#FF1C1C"/>
			<stop  offset="0.1381" style="stop-color:#FF2E2E"/>
			<stop  offset="0.2337" style="stop-color:#FF4D4D"/>
			<stop  offset="0.3405" style="stop-color:#FF7878"/>
			<stop  offset="0.4565" style="stop-color:#FFAFAF"/>
			<stop  offset="0.5784" style="stop-color:#FFF1F1"/>
			<stop  offset="0.6025" style="stop-color:#FFFFFF"/>
		</radialGradient>
		<circle opacity="0.5" fill="url(#SVGID_6_)" cx="29.692" cy="67.556" r="7.856"/>
		
			<linearGradient id="SVGID_7_" gradientUnits="userSpaceOnUse" x1="235.4756" y1="249.9414" x2="228.9655" y2="243.2323" gradientTransform="matrix(-0.9799 -0.1994 -0.1994 0.9799 402.0997 40.7827)">
			<stop  offset="0" style="stop-color:#D4C6C1"/>
			<stop  offset="0.3159" style="stop-color:#F3EEE7"/>
			<stop  offset="0.7421" style="stop-color:#948E88"/>
			<stop  offset="1" style="stop-color:#D4C6C1"/>
		</linearGradient>
		<path fill="url(#SVGID_7_)" d="M123.104,237.3c0.279,0.564,1.369,0.598,2.433,0.07c1.063-0.529,1.698-1.416,1.419-1.979
			c-0.282-0.566-1.372-0.597-2.437-0.067C123.457,235.848,122.821,236.734,123.104,237.3z"/>
	</g>
	<path fill="#FFCB9E" d="M120.128,225.117c0.996,3.904,3.693,7.299,7.259,7.798c1.939,0.272,5.736,1.244,5.668-1.134
		c-0.082-2.937-7.118-5.931-8.433-7.842c-0.819-1.193-1.252-4.461-2.1-4.286C120.074,220.156,119.669,223.317,120.128,225.117z"/>
	<path fill="#E8E8E8" d="M137.5,237.925c4.444,5.58,12.76,13.294,18.807,9.264c6.648-4.428,6.925-17.542,7.045-24.818
		c0.115-6.996,2.711-12.479,8.754-14.707c2.682-0.99-1.309,7.267-0.85,12.037c0.408,4.239,9.928,21.823-4.564,37.339
		c-12.803,13.706-32.101-1.177-40.779-7.577C125.749,244.622,132.264,239.091,137.5,237.925z"/>
	<path fill="#FFFFFF" d="M128.459,250.046c0.817,0.838,2.159,0.853,2.995,0.037c0.838-0.82,0.854-2.159,0.036-2.995
		c-0.817-0.838-2.158-0.854-2.995-0.037C127.657,247.868,127.642,249.208,128.459,250.046z"/>
	<path fill="#FFCB9E" d="M115.006,221.43c0.188,0.131,0.366,0.382,0.521,0.781c0.43,1.112,0.341,2.386,0.634,3.539
		c0.121-0.725,0.78-1.294,1.384-0.994c2.099,1.05,0.76,5.412,0.028,6.936c0.397-0.827,1.434-2.412,2.225-1.481
		c0.946,1.116-0.385,6.629-0.743,7.964c-0.447,1.662-1.41,3.845-3.084,2.482c-2.261-1.842-2.769-4.947-3.338-7.811
		c-0.599-2.999-0.168-7.409,0.933-10.292C113.923,221.617,114.499,221.075,115.006,221.43z"/>
</g>
<radialGradient id="SVGID_8_" cx="-390.8096" cy="49666.1836" r="125.2435" gradientTransform="matrix(-1.0417 0 0 0.148 -215.1978 -6948.0601)" gradientUnits="userSpaceOnUse">
	<stop  offset="0" style="stop-color:#000000"/>
	<stop  offset="0.0146" style="stop-color:#050505"/>
	<stop  offset="0.2607" style="stop-color:#5D5D5D"/>
	<stop  offset="0.4774" style="stop-color:#A2A2A2"/>
	<stop  offset="0.6568" style="stop-color:#D4D4D4"/>
	<stop  offset="0.7921" style="stop-color:#F3F3F3"/>
	<stop  offset="0.8676" style="stop-color:#FFFFFF"/>
</radialGradient>
<ellipse opacity="0.2" fill="url(#SVGID_8_)" cx="191.908" cy="402.534" rx="134.599" ry="16.028"/>
<g>
	<path fill="#18181C" d="M173.98,375.658c5.837,3.66,3.235,9.781,0.461,14.583c-5.055,8.758-15.806,14.445-22.934,11.599
		c-4.116-1.644-3.244-10.795,3.838-22.391C160.261,371.403,167.911,371.851,173.98,375.658z"/>
	<g>
		<path fill="#F7BE92" d="M192.752,302.02c-1.844,13.426-11.917,60.532-14.62,75.394c-1.444,7.946-12.31,15.435-19.077,13.302
			c-7.871-2.484-3.021-11.651-0.371-21.358c10.86-39.812,11.262-56.839,12.801-70.16L192.752,302.02z"/>
	</g>
	
		<linearGradient id="SVGID_9_" gradientUnits="userSpaceOnUse" x1="149.064" y1="314.6318" x2="149.2145" y2="328.939" gradientTransform="matrix(-0.9973 -0.0728 -0.0728 0.9973 351.0431 12.6412)">
		<stop  offset="0" style="stop-color:#770000"/>
		<stop  offset="0.1114" style="stop-color:#790505"/>
		<stop  offset="0.2353" style="stop-color:#811212"/>
		<stop  offset="0.3654" style="stop-color:#8C2828"/>
		<stop  offset="0.4998" style="stop-color:#9D4747"/>
		<stop  offset="0.6374" style="stop-color:#B37070"/>
		<stop  offset="0.7778" style="stop-color:#CDA1A1"/>
		<stop  offset="0.9177" style="stop-color:#EBDADA"/>
		<stop  offset="1" style="stop-color:#FFFFFF"/>
	</linearGradient>
	<path opacity="0.4" fill="url(#SVGID_9_)" d="M187.498,330.479l2.098-10.573l-19.704-4.407l-1.993,13.172
		C167.898,328.671,178.195,325.075,187.498,330.479z"/>
</g>
<g>
	<path fill="#18181C" d="M205.313,373.341c-6.793,1.038-6.77,7.586-6.081,13.009c1.257,9.889,7.544,18.575,15.206,18.774
		c4.425,0.115,8.57-7.853,6.552-21.099C219.588,374.835,212.373,372.263,205.313,373.341z"/>
	<g>
		<path fill="#F7BE92" d="M194.698,298.343c-0.476,13.733,5.992,65.034,5.067,80.258c-0.247,4.079,1.171,6.704,3.314,9.466
			c5.17,6.653,13.528,7.509,16.02,0.106c1.318-3.92,0.313-8.384-0.207-13.053c-4.655-41.915-2.666-61.15-1.903-74.706
			L194.698,298.343z"/>
	</g>
	
		<linearGradient id="SVGID_10_" gradientUnits="userSpaceOnUse" x1="128.0161" y1="315.626" x2="128.1648" y2="329.7602" gradientTransform="matrix(0.9986 0.0531 -0.0531 0.9986 95.1152 -6.2245)">
		<stop  offset="0" style="stop-color:#770000"/>
		<stop  offset="0.1114" style="stop-color:#790505"/>
		<stop  offset="0.2353" style="stop-color:#811212"/>
		<stop  offset="0.3654" style="stop-color:#8C2828"/>
		<stop  offset="0.4998" style="stop-color:#9D4747"/>
		<stop  offset="0.6374" style="stop-color:#B37070"/>
		<stop  offset="0.7778" style="stop-color:#CDA1A1"/>
		<stop  offset="0.9177" style="stop-color:#EBDADA"/>
		<stop  offset="1" style="stop-color:#FFFFFF"/>
	</linearGradient>
	<path opacity="0.4" fill="url(#SVGID_10_)" d="M196.658,329.409l-0.938-10.639l20.227-1.862l-0.023,13.185
		C215.924,330.093,207.084,325.473,196.658,329.409z"/>
</g>
<g>
	<path fill="#033B3F" d="M217.15,274.197c9.474,18.587,2.205,34.273,4.21,47.085c-1.763,1-13.833,1.951-30.398,1.973
		c-16.566,0.021-24.499-2.066-26.929-3.099c4.113-15.49-0.934-34.757,4.896-50.621C174.756,253.668,210.08,260.324,217.15,274.197z"
		/>
	<path fill="#E8E8E8" d="M166.463,238.438c-4.303-10.666-4.48-13.233-1.977-19.226c10.994-26.313,40.154-22.424,50.172-13.534
		c3.254,2.889,5.484,6.796,6.274,10.777c4.255,11.187,0.175,16.375-2.242,25.938c-2.998,11.856-1.602,25.896,5.774,47.76
		c-4.623,2.464-30.951,1.883-33.617-13.388c-0.122,14.567-29.369,14.622-29.027,13.443
		C167.503,270.542,175.087,259.816,166.463,238.438z"/>
	<path fill="#EF7443" d="M188.419,237.349c0,0-17.751-0.546-18.785,0.271c-1.034,0.815-0.832,11.306,0.054,11.636
		c0.886,0.327,16.928,0.519,18.404,0.192C189.568,249.12,189.489,237.438,188.419,237.349z"/>
	<path fill="#F5F5F5" d="M187.291,239.263c0,0-15.377-0.223-16.273,0.09c-0.895,0.313-0.711,4.349,0.057,4.477
		s14.662,0.212,15.941,0.087C188.295,243.793,188.219,239.3,187.291,239.263z"/>
	<circle fill="#FFFFFF" cx="193.929" cy="242.94" r="2.118"/>
	<circle fill="#FFFFFF" cx="193.647" cy="255.931" r="2.118"/>
	<circle fill="#FFFFFF" cx="193.419" cy="270.235" r="2.118"/>
	
		<linearGradient id="SVGID_11_" gradientUnits="userSpaceOnUse" x1="146.6914" y1="190.8223" x2="146.6914" y2="208.6598" gradientTransform="matrix(-1 0 0 1 341.1406 0)">
		<stop  offset="0" style="stop-color:#EEA17A"/>
		<stop  offset="1" style="stop-color:#FFCCA6"/>
	</linearGradient>
	<path fill="url(#SVGID_11_)" d="M210.684,213.967c-4.873,7.907-8.176,11.749-17.463,16.042
		c-7.479-3.378-15.175-10.694-17.365-17.494c-1.825-5.667,0.793-8.872,2.793-10.006c7.7-4.363-0.629-24.268,5.541-29.251
		c4.643-3.749,12.332-4.096,17.678-1.881c10.572,4.379,0.139,28.566,10.277,32.93C214.162,205.176,214.606,207.605,210.684,213.967z
		"/>
	<path opacity="0.2" fill="#A09D98" d="M193.221,230.009c2.387,0.009,22.207-5.322,22.207-5.322l-1.701,14.563
		c0,0-18.631-8.226-20.449-8.226c-1.983,0-20.947,8.877-20.947,8.877l0.003-15.096C172.333,224.806,190.007,229.995,193.221,230.009
		z"/>
	<path fill="#F5F5F5" d="M193.221,230.009l-19.674,5.826c0,0-4.352-27.748,4.243-33.644c0,0-3.582,8.001,1.081,15.324
		C182.596,223.37,193.221,230.009,193.221,230.009z"/>
	<path fill="#F5F5F5" d="M193.221,230.009l19.547,5.705c0,0,8.495-25.646-1.101-32.184c0,0,1.962,6.188-4.51,15.469
		C202.378,225.854,193.221,230.009,193.221,230.009z"/>
	<path fill="#076777" d="M218.998,320.794c0,0,0.549-13.779-2.916-18.267c-3.464-4.489-17.459-12.649-25.463-12.649
		c-7.643,0-16.742,5.956-20.049,10.365c-3.307,4.41-4.845,18.962-4.845,18.962S182.156,326.737,218.998,320.794z"/>
	<g>
		<path opacity="0.35" fill="#C78C7B" d="M205.278,211.399c-2.12,1.325-4.554,1.439-6.622,2.584
			c2.703,2.361,3.553,7.56,4.211,10.943c1.162,5.965-0.386,12.171,0.778,18.066c-3.702,0.318-9.126-3.98-11.913-6.225
			c-2.869-2.308-5.025-4.884-6.714-8.165c-0.806-1.563-1.562-3.158-1.691-4.924c-5.083,3.621-9.94,5.178-16.271,5.079
			c1.499-3.652,4.101-8.436,6.974-11.168c1.884-1.795,6.95-4.247,6.498-7.39c-0.182-1.263-1.422-2.293-1.832-3.5
			c-0.537-1.589-0.307-3.325-0.109-4.953c1.793-0.669,4.895,1.731,6.557,2.352c2.439,0.912,4.941,2.103,7.477,2.702
			c4.494,1.062,9.777,0.083,13.797-2.122c1.673-0.917,3.319-2.088,4.314-3.666C211.411,206.197,209.508,208.759,205.278,211.399z"/>
		<path fill="#EF7443" d="M194.936,204.584c-3.855,0.073-7.707-1.36-10.542-4.067c-0.977-0.932-2.026-2.441-3.189-3.076
			c-0.304-0.165-3.604,3.343-3.902,3.814c-0.491,0.78-0.28,1.077,0.204,1.829c5.17,8.006,17.008,11.605,25.904,8.307
			c1.663-0.617,3.497-1.7,4.787-2.928c2.283-2.171,3.705-4.679,4.347-7.765c-1.339-1.518-2.778-2.941-4.61-3.779
			c-1.155,3.741-5.082,5.658-8.486,6.854C197.984,204.287,196.459,204.552,194.936,204.584z"/>
		<path fill="#EF7443" d="M181.372,205.003c6.061-10.12,21.919,5.898,10.177,9.912C185.865,216.859,177.684,211.164,181.372,205.003
			z"/>
		<path fill="#EF7443" d="M202.063,226.663c0.862,5.372,0.722,11.099,2.661,16.207c-11.203-0.472-22.635-12.094-19.228-25.384
			c0.734-2.865,2.132-6.546,4.042-8.696c2.328,3.152,6.124,4.271,8.445,7.629C200.004,219.338,201.481,223.034,202.063,226.663z"/>
		<path fill="#EF7443" d="M156.043,229.106c11.327-4.305,15.586-25.814,32.166-22.156
			C185.498,231.535,166.177,233.295,156.043,229.106z"/>
		<path fill="#AD380B" d="M180.322,222.692c-2.521,2.303-5.933,4.344-9.415,4.164c0.604-2.547,2.388-5.746,4.567-7.165
			c4.651-3.034,7.174-2.872,9.205-5.313C183.918,217.799,183.277,219.992,180.322,222.692z"/>
		<path fill="#AD380B" d="M186.719,226.315c0.868,3.203,2.4,6.583,4.727,8.021c0.462-2.542,0.375-6.202-0.563-8.462
			c-2.008-4.83-3.704-5.845-4.206-8.945C186.023,220.318,185.703,222.563,186.719,226.315z"/>
		<path fill="#AD380B" d="M189.789,214.27c-0.875,0.008-1.848-0.201-2.683-0.461c-1.276-0.396-2.511-0.979-3.554-1.823
			c-0.639-0.518-1.054-1.254-1.688-1.744c0.104,1.742,1.232,3.593,2.037,5.099c0.428,0.797,0.815,1.887,1.74,2.2
			c0.887,0.301,1.396-0.01,2.107-0.477c0.89-0.585,1.905-0.958,2.813-1.536c1.131-0.723,2.103-1.117,2.946-2.175
			c-0.286-0.025-0.476,0.128-0.739,0.239C191.791,214.011,190.851,214.259,189.789,214.27z"/>
	</g>
</g>
<g>
	<path opacity="0.2" fill="#A09D98" d="M220.027,288.432c1.185,0.789,2.848,0.384,4.133,1.009c-1.141-2.92-2.364-6.545-3.305-9.475
		c-0.709-2.211-3.137-6.643-5.088-3.683C213.752,279.345,217.001,286.414,220.027,288.432z"/>
	<path fill="#FFCB9E" d="M232.676,269.615c-1.906,1.013,0.086,5.787-3.453,9.094c-3.539,3.3,3.156-0.373,4.287,3.264
		c1.134,3.64-13.313,10.711-16.517-1.059c-3.199-11.774,4.476-13.396,16.646-14.101
		C245.807,266.105,232.676,269.615,232.676,269.615z"/>
	<path fill="#E8E8E8" d="M229.369,266.493c4.527-1.495,12.652-6.664,13.333-15.151c1.405-17.529-26.733-32.413-26.733-32.413
		l-1.311-13.251c7.021,1.021,40.463,21.171,40.649,46.112c0.123,16.674-12.604,25.681-19.112,28.817
		C232.548,276.794,229.979,272.13,229.369,266.493z"/>
	<circle fill="#FFFFFF" cx="237.611" cy="275.237" r="2.118"/>
</g>
<path fill="#E9CE89" d="M261.752,66.773c42.477,5.803,47.506,57.676,25.193,81.966c-17.479,19.03-15.529,31.765-1.502,32.854
	c-8.166,8.865-63.547,29.47-74.527-39.721C199.938,72.68,241.416,63.996,261.752,66.773z"/>
<path fill="#EEDEB5" d="M268.736,77.153c10.902-1.062,29.039,11.708,28.285,38.427c-0.352,12.441-7.443,26.356-7.443,26.356
	s9.361-39.17-28.977-43.138C218.516,94.44,268.736,77.153,268.736,77.153z"/>
<path fill="#DEB86F" d="M235.533,108.259c8.381,6.075,30.389-0.904,17.211,40.38c-9.316,29.188,2.521,39.695,25.182,36.26
	c0,0-34.771,17.138-62.92-17.66C184.389,129.392,197.811,80.92,235.533,108.259z"/>
<circle fill="#DAB978" cx="257.451" cy="141.105" r="6.16"/>
<path fill="#DAB978" d="M251.605,141.011c0,0,17.631,2.31,20.035-16.628c2.402-18.939-4.367-25.018-12.482-24.188
	C251.045,101.023,251.605,141.011,251.605,141.011z"/>
<path fill="#E9CE89" d="M205.271,103.295c-10.221-2.316-20.809-2.242-31.209-1.479c-10.105,0.742-27.758,29.104-32.652,22.795
	C129.75,109.571,119.568,6.589,203.631,7.88c96.021,1.477,80.273,131.214,38.676,127.052
	C221.057,132.805,226.09,108.015,205.271,103.295z"/>
<path fill="#FCCAA6" d="M257.348,113.393c-1.141,45.368-32.574,75.268-65.367,77.276c-25.178,1.54-56.949-39.049-54.367-84.357
	c2.553-44.708,19.168-71.413,61.865-70.041C243.891,37.696,258.486,68.025,257.348,113.393z"/>
<path opacity="0.5" fill="#C8A18A" d="M198.053,62.855c-0.83-4.662-3.4-3.977-6.045-1.461c0,0,3.221-7.397,7.043-6.375
	C202.873,56.043,198.053,62.855,198.053,62.855z"/>
<path opacity="0.5" fill="#C8A18A" d="M178.248,60.223c5.818-4.664,12.143-3.943,13.732,1.217c0,0,2.395-9.672-5.26-9.451
	C179.064,52.211,178.248,60.223,178.248,60.223z"/>
<path opacity="0.5" fill="#C8A18A" d="M198.053,62.855c7.264-3.568,63.762-31.916,52.492,60.344c0,0,18.475-65.557-15.305-78.775
	C211.346,35.075,204.277,52.746,198.053,62.855z"/>
<path opacity="0.5" fill="#C8A18A" d="M166.648,36.78c8.695,0.623,11.758,17.227,11.6,23.443
	c-8.396-11.393-27.273-8.527-35.865,15.462C142.014,66.096,154.58,35.916,166.648,36.78z"/>
<g>
	<path fill="#FFFFFF" stroke="#8E604C" stroke-miterlimit="10" d="M218.148,121.404c3.859-1.336,8.508-1.147,12.244,0.56
		c9.281-6.249,4.497-29.905-8.424-26.075C212.348,98.747,210.521,115.865,218.148,121.404z"/>
</g>
<path fill="#A1CAEE" d="M227.537,103.75c-3.445-0.772-4.939,4.787-2.098,6.46C229.371,112.524,231.406,104.625,227.537,103.75z"/>
<path fill="#FCCAA6" d="M261.918,135.445c-3.211,1.479-6.615,1.527-9.893,1.025c-0.064-0.146-0.129-0.292-0.195-0.444
	c-1.465-3.398,1.176-20.268,1.928-23.735c1.891-8.737,4.99-14.826,10.867-12.205C276.861,105.545,271.92,130.838,261.918,135.445z"
	/>
<path opacity="0.5" fill="#C8A18A" d="M255.762,126.96c-3.186-4.443,1.912-16.78,4.939-18.421c2.484-1.344,7.742,2.717,4.162,9.6
	c-0.547-7.031-3.607-2.996-3.834,1.894c-0.152,3.283,1.945,3.681-0.67,7.489C258.947,129.578,256.766,128.36,255.762,126.96z"/>
<path fill="#E9CE89" d="M140.109,61.869c-0.871,4.979-1.021,29.072-0.102,24.138c8.252-44.279,33.77-42.915,38.24-25.784
	c4.32-5.025,12.223-6.643,13.76,1.172c0.586-0.977,4.557-3.906,5.023-4.383c0.592,1.803,0.922,3.863,1.021,5.844
	c12.672-9.629,36.848-16.754,48.053-1.605c11.162,15.092,5.457,63.609-0.475,81.261c34.941-53.491,12.725-120.076-31.729-128.742
	C172.514,5.7,144.164,38.721,140.109,61.869z"/>
<path fill="#EEAF8C" d="M142.551,129.136c-0.334,0.679-0.561,1.456-0.654,2.345c-0.924,8.63,16.5,5.321,18.123,1.538
	c3.041-7.101-3.135-8.672-7.596-8.483C149.004,124.681,144.311,125.534,142.551,129.136z"/>
<path fill="#EEAF8C" d="M222,128.16c-0.486,0.701-0.871,1.534-1.135,2.522c-2.535,9.608,17.148,9.667,19.594,5.722
	c4.59-7.402-1.9-10.544-6.824-11.308C229.859,124.512,224.566,124.453,222,128.16z"/>
<path opacity="0.2" fill="#A94A21" d="M180.576,126.967c-1.262,1.48,2.766,5.338,7.607,5.591c4.283,0.221,9.477-4.635,7.047-5.894
	c-2.432-1.257-3.797,0.238-7.254,0.303C184.133,127.037,182.043,125.24,180.576,126.967z"/>
<path fill="#121B21" d="M253.227,104.888c0,0-8.058,10.445-24.529-1.469c-7.221-5.221-14.111,0.073-14.111,0.073
	s4.122-13.377,15.762-6.37C234.813,99.806,238.66,108.02,253.227,104.888z"/>
<path fill="#EEDEB5" d="M159.301,22.558c0,0-17.744,15.756-20.402,37.907c0,0,11.594-20.188,29.387-18.064s31.727,6.94,47.131,3.929
	c15.402-3.013,28.994-1.972,37.432,9.405c8.438,11.375,17.973,6.27,17.973,6.27s-4.758-26.527-23.471-37.461
	C247.35,24.542,198.229,58.27,159.301,22.558z"/>
<circle fill="#EEE8E0" cx="258.048" cy="140.454" r="4.822"/>
<path fill="#BE8B52" d="M141.354,94.442c0,0,2.854-15.289,12.902-15.891c10.051-0.602,10.092,11.709,10.092,11.709
	s-2.154-7.128-10.359-6.606C145.781,84.176,141.354,94.442,141.354,94.442z"/>
<path fill="#BE8B52" d="M241.744,96.623c0,0-2.344-15.51-13.887-16.971c-11.545-1.461-12.35,10.825-12.35,10.825
	s2.92-6.933,12.344-5.708S241.744,96.623,241.744,96.623z"/>
<g>
	<g opacity="0.6">
		<path fill="#E65050" d="M163.702,146.874c7.669,1.757,15.185,0.669,26.73,0.89c9.548,0.182,23.59,2.894,31.056-1.518
			c-12.247,21.043-19.929,24.988-29.71,25.736c-12.261,0.937-16.567-7.564-18.517-13.956
			C172.436,155.323,166.128,148.425,163.702,146.874z"/>
	</g>
	<path fill="#8F3935" d="M215.764,149.958c0,0-20.282,6.424-47.008,0.066c0,0,4.193,1.821,6.256,6.999
		c1.886,4.734,8.371,7.946,18.146,7.607C208.417,164.103,215.764,149.958,215.764,149.958z"/>
	<path fill="#FFF9F0" d="M210.111,151.288c0,0-0.402,4.252-5.812,5.97c-6.932,2.202-14.437,2.434-22.197,1.302
		c-5.229-0.76-7.895-7.387-7.895-7.387S189.178,154.632,210.111,151.288z"/>
	<path fill="#FFF9F0" d="M207.638,157.455c0.521-1.121,0.271-2.895-2.2-1.206c-3.462,2.37-9.254,2.935-16.244,2.767
		c-6.473-0.153-9.773-2.075-11.028-0.853c-1.256,1.223,4.616,8.091,15.733,6.644C205.469,163.302,207.638,157.455,207.638,157.455z"
		/>
	<path fill="#E8DAC5" d="M208.769,154.302c0,0-26.154-1.921-32.368,0.547c0,0-1.872-2.323-2.192-3.676
		c0,0,18.303,3.211,35.903,0.115C210.111,151.288,209.748,153.264,208.769,154.302z"/>
	<path fill="#E8DAC5" d="M203.371,157.136c0,0-8.734,3.81-20.569,1.204C182.802,158.34,194.09,163.074,203.371,157.136z"/>
</g>
<ellipse fill="#277BC1" cx="221.514" cy="108.719" rx="8.096" ry="9.262"/>
<ellipse fill="#0B2435" cx="220.295" cy="106.474" rx="5.709" ry="7.019"/>
<ellipse fill="#FFFFFF" cx="227.837" cy="110.095" rx="3.517" ry="3.397"/>
<g>
	<path fill="#FFFFFF" stroke="#8E604C" stroke-miterlimit="10" d="M167.715,119.351c-3.859-1.336-8.508-1.147-12.244,0.56
		c-9.281-6.249-4.497-29.905,8.424-26.075C173.516,96.693,175.342,113.812,167.715,119.351z"/>
</g>
<ellipse fill="#277BC1" cx="158.027" cy="106.475" rx="8.096" ry="9.262"/>
<ellipse fill="#0B2435" cx="155.833" cy="106.474" rx="5.709" ry="7.019"/>
<path fill="#121B21" d="M134.554,101.238c0,0,6.141,12.041,22.612,0.127c7.221-5.221,14.111,0.073,14.111,0.073
	s-4.122-13.377-15.762-6.37C151.051,97.752,149.121,104.37,134.554,101.238z"/>
<ellipse fill="#FFFFFF" cx="164.349" cy="108.282" rx="3.517" ry="3.397"/>
</svg>
